<svg width="844" height="244" viewBox="0 0 844 244" fill="none" xmlns="http://www.w3.org/2000/svg"><path d="M837.046 0.577636C840.742 0.577637 843.737 3.57331 843.737 7.26866L843.737 236.828C843.737 240.523 840.742 243.519 837.046 243.519L6.76116 243.519C3.06579 243.519 0.0701212 240.523 0.0701214 236.827L0.0701292 7.26861C0.0701293 3.57326 3.0658 0.577589 6.76117 0.57759L837.046 0.577636Z" fill="#FFDD33"></path><path d="M196.003 118.747H229.775L227.788 129.159H206.211L204.637 137.105H220.602V147.517H202.585L200.94 156.283H223.271L221.219 166.694H186.692L196.003 118.747Z" fill="#1C1C1E"></path><path d="M244.472 129.159H230.769L232.755 118.747H272.35L270.363 129.159H256.66L249.33 166.701H237.135L244.465 129.159H244.472Z" fill="#1C1C1E"></path><path d="M387.215 118.747H420.988L419.001 129.159H397.424L395.85 137.105H411.815V147.517H393.798L392.152 156.283H414.484L412.432 166.695H377.905L387.222 118.741H387.215V118.747Z" fill="#1C1C1E"></path><path d="M426.935 166.701H414.262L441.458 118.748H453.102L461.665 166.701H449.057L444.192 134.706L426.929 166.701H426.935ZM427.073 157.313L428.994 147.176H454.479L452.558 157.313H427.073Z" fill="#1C1C1E"></path><path d="M475.084 129.159H461.381L463.367 118.748H502.962L500.975 129.159H487.272L479.942 166.701H467.747L475.077 129.159H475.084Z" fill="#1C1C1E"></path><path d="M523.628 117.981H539.246C543.724 117.981 547.638 118.781 550.995 120.381C554.352 121.981 556.942 124.249 558.771 127.2C560.6 130.144 561.511 133.56 561.511 137.441C561.511 141.873 560.528 146.279 558.568 150.665C556.601 155.052 553.552 158.69 549.421 161.595C545.284 164.5 540.164 165.948 534.04 165.948H514.312L523.628 117.995V117.981ZM541.304 153.301C543.724 151.819 545.619 149.82 546.989 147.308C548.359 144.797 549.048 142.057 549.048 139.087C549.048 136.484 548.418 134.386 547.166 132.786C545.907 131.186 544.301 130.058 542.334 129.396C540.367 128.734 538.197 128.4 535.823 128.4H533.633L528.355 155.53H533.286C536.21 155.53 538.879 154.789 541.304 153.301Z" fill="#1C1C1E"></path><path d="M576.448 163.883C573.091 162.146 570.462 159.72 568.567 156.586C566.672 153.459 565.722 149.931 565.722 146.004C565.722 140.798 566.987 136.005 569.524 131.619C572.062 127.233 575.517 123.778 579.903 121.24C584.29 118.703 589.082 117.438 594.288 117.438C598.491 117.438 602.254 118.303 605.591 120.04C608.922 121.778 611.525 124.21 613.4 127.338C615.269 130.465 616.206 133.993 616.206 137.92C616.206 143.126 614.948 147.918 612.436 152.305C609.925 156.691 606.496 160.146 602.162 162.684C597.822 165.221 593.049 166.486 587.843 166.486C583.595 166.486 579.792 165.621 576.435 163.883H576.448ZM596.209 153.714C598.537 152.141 600.399 150.049 601.795 147.446C603.185 144.843 603.887 142.077 603.887 139.159C603.887 136.969 603.454 135.015 602.582 133.304C601.71 131.593 600.471 130.255 598.851 129.298C597.232 128.341 595.344 127.856 593.2 127.856C590.551 127.856 588.06 128.642 585.732 130.223C583.404 131.803 581.542 133.888 580.146 136.491C578.749 139.093 578.054 141.86 578.054 144.778C578.054 146.968 578.5 148.922 579.392 150.633C580.284 152.344 581.536 153.682 583.162 154.639C584.781 155.596 586.67 156.081 588.814 156.081C591.416 156.081 593.882 155.294 596.216 153.714H596.209Z" fill="#1C1C1E"></path><path d="M624.579 117.981H637.391L648.766 146.62L654.313 117.981H666.508L657.191 165.935H644.38L633.004 137.297L627.458 165.935H615.263L624.579 117.981Z" fill="#1C1C1E"></path><path d="M672.128 117.982H705.901L703.914 128.394H682.337L680.763 136.34H696.728V146.752H678.711L677.066 155.518H699.397L697.345 165.93H662.818L672.135 117.976H672.128V117.982Z" fill="#1C1C1E"></path><path fill-rule="evenodd" clip-rule="evenodd" d="M566.493 106.557C567.048 104.621 570.122 104.604 570.178 106.557C570.336 110.876 573.645 114.287 578.307 114.91C580.406 115.185 580.046 117.995 577.887 118.287C573.051 118.904 568.894 122.315 567.676 126.64C567.127 128.593 564.041 128.576 563.991 126.64C563.833 122.321 560.524 118.91 555.862 118.287C553.763 118.012 554.123 115.202 556.282 114.91C561.118 114.293 565.275 110.882 566.493 106.557Z" fill="#1C1C1E"></path><path d="M157.052 130.962C159.216 129.415 161.734 128.634 164.605 128.634C166.29 128.634 167.818 128.943 169.188 129.559C170.559 130.175 171.64 131.054 172.434 132.188C173.234 133.329 173.653 134.647 173.699 136.155H186.688C186.871 132.739 186.176 129.67 184.603 126.956C183.029 124.242 180.695 122.111 177.594 120.563C174.493 119.016 170.867 118.236 166.723 118.236C161.432 118.236 156.593 119.468 152.194 121.927C147.795 124.386 144.333 127.762 141.802 132.044C139.271 136.332 138.006 141.092 138.006 146.337C138.006 150.802 138.937 154.598 140.812 157.719C142.681 160.84 145.257 163.187 148.536 164.76C151.82 166.334 155.577 167.14 159.819 167.186C164.015 167.186 167.884 166.563 171.273 164.964C180.656 160.545 183.901 152.762 185.317 146.802C185.606 145.583 185.475 144.376 185.114 143.216C184.747 142.055 184.065 141.105 183.062 140.377C182.059 139.649 180.806 139.282 179.298 139.282H164.487V148.173H170.736C171.149 148.173 171.418 148.284 171.555 148.514C171.673 148.717 171.699 148.972 171.647 149.274C170.867 151.798 169.641 154.5 165.661 155.87C164.225 156.368 162.684 156.794 160.908 156.794C158.855 156.794 157.033 156.381 155.439 155.562C153.846 154.742 152.587 153.477 151.676 151.766C150.765 150.054 150.306 147.923 150.306 145.373C150.306 142.455 150.889 139.708 152.05 137.132C153.21 134.555 154.876 132.496 157.039 130.942L157.052 130.962Z" fill="#1C1C1E"></path><path d="M305.215 130.962C307.379 129.415 309.897 128.634 312.768 128.634C314.454 128.634 315.981 128.943 317.351 129.559C318.722 130.175 319.804 131.054 320.597 132.188C321.397 133.329 321.816 134.647 321.862 136.155H334.851C335.034 132.739 334.339 129.67 332.766 126.956C331.192 124.242 328.858 122.111 325.757 120.563C322.656 119.016 319.03 118.236 314.886 118.236C309.595 118.236 304.757 119.468 300.357 121.927C295.958 124.386 292.496 127.762 289.965 132.044C287.434 136.332 286.169 141.092 286.169 146.337C286.169 150.802 287.1 154.598 288.975 157.719C290.844 160.84 293.42 163.187 296.699 164.76C299.983 166.334 303.74 167.14 307.982 167.186C312.178 167.186 316.047 166.563 319.436 164.964C328.819 160.545 332.064 152.762 333.48 146.802C333.769 145.583 333.638 144.376 333.277 143.216C332.91 142.055 332.228 141.105 331.225 140.377C330.222 139.649 328.97 139.282 327.462 139.282H312.65V148.173H318.899C319.312 148.173 319.581 148.284 319.718 148.514C319.836 148.717 319.863 148.972 319.81 149.274C319.03 151.798 317.804 154.5 313.824 155.87C312.388 156.368 310.847 156.794 309.071 156.794C307.019 156.794 305.196 156.381 303.603 155.562C302.009 154.742 300.751 153.477 299.839 151.766C298.928 150.054 298.469 147.923 298.469 145.373C298.469 142.455 299.052 139.708 300.213 137.132C301.373 134.555 303.039 132.496 305.202 130.942L305.215 130.962Z" fill="#1C1C1E"></path><path d="M231.954 71.2206C233.347 71.2206 234.469 70.099 234.469 68.7136C234.469 67.3281 233.347 66.2065 231.954 66.2065C230.56 66.2065 229.438 67.3281 229.438 68.7136C229.438 70.099 230.56 71.2206 231.954 71.2206Z" fill="#1C1C1E"></path><path d="M239.682 81.8506V92.6869H244.111V82.5104C244.111 77.9746 250.271 77.9746 250.271 77.9746V73.5708C250.271 73.5708 248.547 73.6532 247.187 73.9584C243.335 74.8243 239.674 76.7293 239.674 81.8423L239.682 81.8506Z" fill="#1C1C1E"></path><path d="M206.232 73.3481C207.964 73.3481 210.117 74.3295 211.296 76.0366C212.516 74.4779 214.512 73.4141 216.994 73.3811C220.136 73.3399 224.029 75.3109 224.029 81.1661V92.6621H219.6V81.1661C219.6 79.2116 218.19 77.8014 216.071 77.8014C213.951 77.8014 212.549 79.2034 212.549 81.1661V92.6621H208.121V81.1661C208.121 79.2116 206.711 77.8014 204.599 77.8014C202.488 77.8014 201.029 79.2034 201.029 81.1661V92.6621H196.369V73.9254H201.029V75.8057C202.282 74.28 204.129 73.3398 206.282 73.3398H206.265L206.241 73.3646L206.232 73.3481Z" fill="#1C1C1E"></path><path d="M234.232 74.1733V92.6874H229.721V74.1733H234.232Z" fill="#1C1C1E"></path><path d="M262.328 73.3066C256.868 73.3066 252.432 77.7104 252.432 83.1533C252.432 88.5962 256.86 93 262.328 93C267.795 93 272.224 88.5962 272.224 83.1533C272.224 77.7104 267.795 73.3066 262.328 73.3066ZM262.328 88.5715C259.235 88.5715 256.728 86.0727 256.728 82.9966C256.728 79.9206 259.235 77.4218 262.328 77.4218C265.42 77.4218 267.927 79.9206 267.927 82.9966C267.927 86.0727 265.42 88.5715 262.328 88.5715Z" fill="#1C1C1E"></path><path d="M138.131 69.1098C138.131 62.3474 143.615 56.8633 150.377 56.8633H174.87C181.633 56.8633 187.117 62.3557 187.117 69.1098V93.611C187.117 100.373 181.633 105.858 174.87 105.858H150.377C143.615 105.858 138.131 100.365 138.131 93.611V69.1098Z" fill="#1C1C1E"></path><path fill-rule="evenodd" clip-rule="evenodd" d="M170.697 66.2144H166.252L169.963 72.7293L161.807 66.2144H157.362L161.436 74.1725L152.917 66.2144H148.472L152.917 76.3497L148.472 96.6038H152.917L161.436 74.9065L157.362 96.6038H161.807L169.963 73.4468L166.252 96.6038H170.697L178.853 71.2861L170.697 66.2226V66.2144Z" fill="#FFDD33"></path><path d="M335.244 166.547L344.446 118.921H365.286C374.285 118.921 379.022 123.82 379.022 130.896C379.022 137.291 376.112 141.442 371.443 143.823C373.879 145.864 375.097 148.994 374.759 152.872L373.609 166.547H361.497L362.309 154.641C362.512 151.987 360.82 150.218 358.182 150.218H350.536L347.356 166.547H335.244ZM352.498 139.877H360.414C364.813 139.877 367.316 136.543 367.316 133.141C367.316 130.76 365.895 128.855 362.58 128.855H354.663L352.498 139.877Z" fill="#1C1C1E"></path></svg>